<?xml version="1.0" standalone="no"?>
<!DOCTYPE svg PUBLIC "-//W3C//DTD SVG 20010904//EN"
 "http://www.w3.org/TR/2001/REC-SVG-20010904/DTD/svg10.dtd">
<svg version="1.0" xmlns="http://www.w3.org/2000/svg"
 width="500.000000pt" height="197.000000pt" viewBox="0 0 500.000000 197.000000"
 preserveAspectRatio="xMidYMid meet">

<g transform="translate(0.000000,197.000000) scale(0.100000,-0.100000)"
fill="#000000" stroke="none">
<path d="M1120 1669 c-94 -42 -158 -130 -167 -229 -5 -53 -4 -58 22 -78 51
-40 99 -18 110 50 9 55 28 91 61 117 58 45 141 35 192 -23 66 -76 42 -177 -55
-229 -81 -43 -123 -112 -123 -202 l0 -42 -282 -108 c-609 -232 -578 -218 -618
-300 -19 -38 -21 -59 -19 -129 4 -74 8 -89 34 -128 18 -25 49 -52 75 -66 44
-22 48 -22 395 -20 l350 3 3 62 3 62 -339 3 c-397 3 -382 0 -382 98 0 42 5 61
18 72 25 23 800 318 833 318 33 0 806 -295 832 -318 12 -11 17 -30 17 -72 0
-98 15 -95 -381 -98 l-339 -3 0 -64 0 -65 359 0 359 0 48 33 c68 46 94 99 94
194 0 87 -26 151 -74 187 -39 28 -53 34 -471 194 -187 72 -348 133 -357 137
-12 5 -18 18 -18 42 0 47 14 70 58 92 44 23 103 83 128 131 28 53 26 191 -3
246 -27 50 -92 110 -147 135 -57 26 -157 25 -216 -2z"/>
<path d="M3355 1446 c-37 -16 -70 -52 -84 -89 -7 -17 -11 -128 -11 -288 l0
-259 60 0 60 0 0 80 0 80 50 0 49 0 3 -77 3 -78 58 -3 57 -3 0 269 c0 263 0
270 -23 303 -49 73 -142 100 -222 65z m113 -108 c8 -8 12 -54 12 -140 l0 -128
-50 0 -50 0 0 121 c0 66 5 129 10 140 12 22 59 26 78 7z"/>
<path d="M3765 1437 c-26 -15 -48 -37 -63 -67 -22 -44 -22 -52 -20 -300 l3
-255 58 -3 57 -3 0 254 c0 279 2 291 55 285 51 -5 55 -28 55 -295 l0 -243 55
0 c49 0 55 2 61 24 3 13 4 133 2 267 -3 234 -4 246 -26 281 -45 73 -158 99
-237 55z"/>
<path d="M4164 1443 c-48 -24 -84 -87 -84 -148 0 -64 25 -115 82 -163 102 -87
138 -128 138 -159 0 -34 -27 -63 -58 -63 -26 0 -52 36 -52 72 0 27 -1 28 -56
28 l-56 0 4 -55 c6 -68 29 -102 89 -133 80 -42 184 -9 225 70 11 22 15 49 12
92 -4 73 -32 118 -111 181 -102 82 -123 117 -97 166 12 22 62 26 78 6 6 -6 12
-28 14 -47 3 -35 4 -35 54 -38 61 -3 68 6 55 73 -16 88 -71 135 -156 134 -27
0 -64 -7 -81 -16z"/>
<path d="M2659 1213 c-1 -131 -4 -249 -8 -263 -10 -37 -53 -49 -93 -25 l-31
18 -24 -28 c-31 -36 -26 -64 17 -89 54 -32 137 -28 184 7 69 54 71 61 71 352
l0 260 -57 3 -58 3 -1 -238z"/>
<path d="M2850 1130 l0 -320 54 0 c68 0 68 1 65 157 l-3 118 52 3 51 3 3 -138
3 -138 58 -3 57 -3 0 321 0 320 -60 0 -60 0 0 -131 0 -130 -51 3 -51 3 -1 125
-2 125 -57 3 -58 3 0 -321z"/>
<path d="M2419 558 c-4 -83 7 -108 46 -108 36 0 55 30 55 89 0 69 -24 65 -28
-5 -6 -85 -52 -79 -52 7 0 54 -19 69 -21 17z"/>
<path d="M2610 521 c0 -55 3 -71 14 -71 10 0 16 14 18 43 l3 42 30 -42 c44
-62 55 -56 55 27 0 40 -4 70 -10 70 -5 0 -10 -20 -10 -45 0 -25 -3 -45 -7 -44
-5 0 -21 19 -38 41 -46 64 -55 61 -55 -21z"/>
<path d="M2830 588 c-1 -2 -2 -33 -3 -71 -2 -61 0 -67 18 -67 18 0 20 7 20 70
0 60 -2 70 -17 70 -10 0 -18 -1 -18 -2z"/>
<path d="M2966 583 c-3 -4 -6 -35 -6 -70 0 -49 3 -63 15 -63 10 0 15 10 15 30
0 25 4 30 25 30 14 0 25 5 25 10 0 6 -11 10 -25 10 -35 0 -33 28 3 32 15 2 27
8 27 13 0 11 -69 18 -79 8z"/>
<path d="M3156 569 c-47 -37 -22 -119 37 -119 31 0 67 39 67 72 0 27 -40 68
-65 68 -7 0 -24 -9 -39 -21z m58 -15 c22 -8 21 -61 -1 -72 -36 -19 -73 21 -53
58 11 21 27 25 54 14z"/>
<path d="M3350 520 c0 -56 3 -70 15 -70 10 0 15 10 15 33 l1 32 28 -32 c26
-31 51 -43 51 -25 0 5 -9 17 -20 27 -17 16 -18 19 -4 40 14 22 14 25 -5 44
-12 12 -34 21 -51 21 l-30 0 0 -70z m68 28 c-7 -19 -38 -22 -38 -4 0 10 9 16
21 16 12 0 19 -5 17 -12z"/>
<path d="M3556 583 c-3 -4 -6 -35 -6 -70 0 -49 3 -63 15 -63 11 0 15 12 16 48
0 46 1 46 16 25 20 -29 38 -29 57 -1 15 22 16 21 16 -25 0 -35 4 -47 15 -47
12 0 15 14 15 70 0 39 -4 70 -9 70 -5 0 -21 -13 -34 -30 -31 -36 -40 -37 -57
-6 -13 26 -34 39 -44 29z"/>
<path d="M3938 579 c-10 -5 -18 -21 -18 -34 0 -18 8 -26 35 -35 19 -6 35 -16
35 -21 0 -16 -29 -22 -44 -10 -11 9 -16 9 -21 0 -19 -29 53 -39 79 -10 16 17
13 51 -4 51 -5 0 -21 5 -35 10 -36 14 -17 40 23 32 24 -5 26 -4 13 11 -15 19
-38 21 -63 6z"/>
<path d="M4107 584 c-13 -13 -7 -24 13 -24 18 0 20 -7 20 -55 0 -30 5 -55 10
-55 6 0 10 25 10 55 0 49 2 55 21 55 12 0 19 5 17 13 -5 13 -79 22 -91 11z"/>
<path d="M4309 572 c-44 -37 -16 -122 40 -122 9 0 27 7 39 16 44 31 17 124
-37 124 -10 0 -29 -8 -42 -18z m75 -34 c15 -25 -3 -52 -37 -56 -21 -3 -28 2
-33 22 -12 49 43 76 70 34z"/>
<path d="M4510 520 c0 -40 4 -70 10 -70 6 0 10 14 10 30 0 17 4 30 9 30 5 0
19 -13 31 -30 12 -16 28 -30 36 -30 11 0 9 7 -8 30 -17 23 -19 33 -10 42 30
30 1 68 -52 68 -25 0 -26 -2 -26 -70z m65 25 c0 -5 -10 -11 -22 -13 -16 -2
-23 2 -23 13 0 11 7 15 23 13 12 -2 22 -7 22 -13z"/>
<path d="M4710 520 l0 -70 40 0 c45 0 55 17 13 22 -38 4 -45 38 -9 38 31 0 35
17 4 22 -35 5 -34 28 1 28 21 0 31 5 31 15 0 11 -11 15 -40 15 l-40 0 0 -70z"/>
</g>
</svg>
